<svg xmlns="http://www.w3.org/2000/svg" width="29" height="23" viewBox="0 0 29 23">
    <g fill="#60687C" fill-rule="nonzero">
        <path d="M27.183 22.17h-.475V9.863a3.845 3.845 0 0 0 1.785-3.24.413.413 0 0 0-.055-.206L25.126.656A1.314 1.314 0 0 0 23.989 0H4.504c-.469 0-.905.251-1.137.656L.055 6.416A.413.413 0 0 0 0 6.624c0 1.358.712 2.554 1.784 3.24V22.17H1.31a.416.416 0 0 0-.418.415c0 .23.187.415.418.415h25.873c.23 0 .417-.186.417-.415a.416.416 0 0 0-.417-.415zM.863 7.037h1.339c.23 0 .417-.185.417-.414a.416.416 0 0 0-.417-.415H1.137l2.955-5.14A.476.476 0 0 1 4.504.83h19.485c.17 0 .328.09.412.238l2.955 5.14H26.29a.416.416 0 0 0-.418.415c0 .229.187.414.418.414h1.338a3.038 3.038 0 0 1-3.011 2.607 3.038 3.038 0 0 1-3.01-2.607h2.899c.23 0 .417-.185.417-.414a.416.416 0 0 0-.417-.415H3.987a.416.416 0 0 0-.418.415c0 .229.187.414.417.414h2.9a3.038 3.038 0 0 1-3.011 2.607A3.038 3.038 0 0 1 .864 7.037zm19.851 0a3.038 3.038 0 0 1-3.01 2.607 3.038 3.038 0 0 1-3.011-2.607h6.021zm-6.914 0a3.038 3.038 0 0 1-3.011 2.607 3.038 3.038 0 0 1-3.01-2.607h6.02zm9.843 15.133h-4.518v-1.387h4.518v1.387zm0-2.217h-4.518v-7.595h4.518v7.595zm2.23 2.217h-1.395V11.943a.416.416 0 0 0-.418-.414h-5.353a.416.416 0 0 0-.417.414V22.17H2.62V10.265A3.881 3.881 0 0 0 7.332 8.36a3.881 3.881 0 0 0 3.456 2.114c1.508 0 2.817-.86 3.457-2.114a3.881 3.881 0 0 0 3.457 2.114c1.508 0 2.818-.86 3.458-2.114a3.881 3.881 0 0 0 4.712 1.905V22.17z"/>
        <path d="M16.398 11.672h-12.2a.42.42 0 0 0-.422.415v8.438c0 .23.19.415.423.415h12.2a.42.42 0 0 0 .422-.415v-8.438a.42.42 0 0 0-.423-.415zm-.423 8.437H4.622v-7.606h11.353v7.606z"/>
    </g>
</svg>
