<svg version="1.1" id="Capa_1" xmlns="http://www.w3.org/2000/svg" xmlns:xlink="http://www.w3.org/1999/xlink" x="0px" y="0px"
	 viewBox="0 0 512 512" style="enable-background:new 0 0 512 512;" xml:space="preserve" width="30" height="26" >
<g>
	<g fill="#E51636">
		<g>
			<path d="M40.778,403.799h327.43v-15.076H15.076v-33.014h128.716v-15.076H39.266c3.987-116.109,99.671-209.34,216.734-209.34
				c66.846,0,128.959,30.158,170.414,82.742l11.839-9.334c-38.91-49.356-94.844-80.23-156.284-87.045
				c3.536-5.101,5.615-11.283,5.615-17.946c0-17.414-14.169-31.583-31.583-31.583s-31.583,14.169-31.583,31.583
				c0,6.671,2.085,12.862,5.63,17.967C116.77,130.347,27.895,224.915,24.181,340.633H0V403.8h25.403l8.015,40.074H207.91v-15.076
				H45.777L40.778,403.799z M256,83.203c9.102,0,16.507,7.405,16.507,16.507s-7.405,16.507-16.507,16.507
				s-16.507-7.405-16.507-16.507S246.898,83.203,256,83.203z"/>
			<path d="M487.828,340.633c-1.337-41.525-13.7-81.743-35.97-116.755l-12.721,8.092c20.728,32.589,32.279,70.01,33.61,108.663
				H167.833v15.076h329.091v33.014h-48.566V403.8h22.865l-4.999,24.998H231.957v15.076h246.624l8.016-40.074H512v-63.167H487.828z"
				/>
			<rect x="384.24" y="388.722" width="16.029" height="15.076"/>
			<rect x="416.302" y="388.722" width="16.029" height="15.076"/>
			<path d="M95.225,324.127c0-79.812,64.931-144.745,144.745-144.745v-15.076c-88.126,0-159.822,71.695-159.822,159.821H95.225z"/>
			<rect x="255.999" y="164.304" width="16.029" height="15.077"/>
		</g>
	</g>
</g>
<g>
</g>
<g>
</g>
<g>
</g>
<g>
</g>
<g>
</g>
<g>
</g>
<g>
</g>
<g>
</g>
<g>
</g>
<g>
</g>
<g>
</g>
<g>
</g>
<g>
</g>
<g>
</g>
<g>
</g>
</svg>