<svg version="1.1" id="Layer_1" xmlns="http://www.w3.org/2000/svg" xmlns:xlink="http://www.w3.org/1999/xlink" x="0px" y="0px"
	 viewBox="0 0 512 512" style="enable-background:new 0 0 512 512;" xml:space="preserve" width="30" height="26" >
<g >
	<g fill="#60687C">
		<path d="M394.667,42.667H117.333C52.629,42.667,0,95.296,0,160v192c0,64.704,52.629,117.333,117.333,117.333h277.333
			C459.371,469.333,512,416.704,512,352V160C512,95.296,459.371,42.667,394.667,42.667z M490.667,352c0,52.928-43.072,96-96,96
			H117.333c-52.928,0-96-43.072-96-96V160c0-52.928,43.072-96,96-96h277.333c52.928,0,96,43.072,96,96V352z"/>
	</g>
</g>
<g>
	<g fill="#60687C">
		<path d="M357.76,247.04l-149.333-96c-3.285-2.155-7.445-2.261-10.88-0.405C194.133,152.512,192,156.096,192,160v192
			c0,3.904,2.133,7.488,5.547,9.365c1.6,0.853,3.349,1.301,5.12,1.301c2.005,0,4.011-0.555,5.781-1.707l149.333-96
			c3.051-1.941,4.885-5.333,4.885-8.96C362.667,252.373,360.832,248.981,357.76,247.04z M213.333,332.459V179.541L332.267,256
			L213.333,332.459z"/>
	</g>
</g>
<g>
</g>
<g>
</g>
<g>
</g>
<g>
</g>
<g>
</g>
<g>
</g>
<g>
</g>
<g>
</g>
<g>
</g>
<g>
</g>
<g>
</g>
<g>
</g>
<g>
</g>
<g>
</g>
<g>
</g>
</svg>